<svg width="41" height="41" viewBox="0 0 41 41" fill="none" xmlns="http://www.w3.org/2000/svg">
<g clip-path="url(#clip0_2_31)">
<path d="M20.5 1.32557e-07C15.6292 -0.00352982 10.9163 1.72735 7.20564 4.88255C3.49495 8.03775 1.02894 12.4111 0.249402 17.2191C-0.53014 22.0271 0.427727 26.9555 2.9514 31.1216C5.47507 35.2876 9.39964 38.4189 14.022 39.9545C15.047 40.1595 15.416 39.5035 15.416 38.9705L15.3955 35.4855C9.69651 36.7155 8.48701 32.7385 8.48701 32.7385C7.54401 30.3605 6.21151 29.725 6.21151 29.725C4.36651 28.454 6.35501 28.495 6.35501 28.495C8.40501 28.6385 9.49151 30.6065 9.49151 30.6065C11.3365 33.7225 14.2885 32.8205 15.457 32.308C15.662 30.9755 16.1745 30.0735 16.7485 29.561C12.1975 29.0485 7.42101 27.2855 7.42101 19.434C7.42101 17.179 8.22051 15.3545 9.53251 13.9195C8.91251 12.1547 8.98578 10.2203 9.73751 8.5075C9.73751 8.5075 11.4595 7.954 15.375 10.5985C18.7314 9.69117 22.2686 9.69117 25.625 10.5985C29.5405 7.9335 31.2625 8.5075 31.2625 8.5075C32.39 11.316 31.6725 13.4275 31.4675 13.9195C32.7795 15.3545 33.579 17.1995 33.579 19.434C33.579 27.306 28.782 29.028 24.2105 29.5405C24.9485 30.176 25.6045 31.4265 25.6045 33.333L25.584 38.9705C25.584 39.5035 25.953 40.1595 26.9985 39.9545C31.6226 38.4183 35.5483 35.2853 38.0718 31.1172C40.5954 26.949 41.5518 22.0183 40.7696 17.2089C39.9873 12.3996 37.5176 8.0261 33.8032 4.87254C30.0888 1.71899 25.3726 -0.00842172 20.5 1.32557e-07Z" fill="white"/>
</g>
<defs>
<clipPath id="clip0_2_31">
<rect width="41" height="41" fill="white"/>
</clipPath>
</defs>
</svg>
